<svg xmlns="http://www.w3.org/2000/svg" width="61.705" height="61.704" viewBox="0 0 61.705 61.704"><defs><style>.a{fill:#055092;}</style></defs><path class="a" d="M642.078,426.636a6,6,0,0,0-8.374,1.3L624.3,440.8l-12.868-9.4a5.994,5.994,0,0,0-7.071,9.679l12.868,9.4-9.4,12.868a5.993,5.993,0,0,0,9.071,7.779,6.189,6.189,0,0,0,.605-.7l9.407-12.872,12.868,9.407a5.994,5.994,0,0,0,7.768-.594,6.478,6.478,0,0,0,.605-.708,6,6,0,0,0-1.3-8.377l-12.868-9.4,9.4-12.868A5.991,5.991,0,0,0,642.078,426.636Z" transform="translate(-380.93 -619.976) rotate(22)"/></svg>