<svg xmlns="http://www.w3.org/2000/svg" width="34.275" height="34.24" viewBox="0 0 34.275 34.24"><defs><style>.a{fill:none;stroke:#047cad;stroke-miterlimit:10;}</style></defs><path class="a" d="M331.929,413a3.6,3.6,0,0,0-4.106-3l-9.452,1.47-1.47-9.451a3.6,3.6,0,1,0-7.107,1.1l1.469,9.451-9.451,1.47a3.6,3.6,0,0,0,.548,7.151,3.633,3.633,0,0,0,.557-.043l9.452-1.47,1.47,9.452a3.6,3.6,0,0,0,3.549,3.044,3.634,3.634,0,0,0,.557-.043,3.6,3.6,0,0,0,3-4.107l-1.47-9.451,9.452-1.47A3.6,3.6,0,0,0,331.929,413Z" transform="translate(-298.232 -398.438)"/></svg>