<svg xmlns="http://www.w3.org/2000/svg" width="628.004" height="182.72" viewBox="0 0 628.004 182.72">
  <g id="Groupe_37323" data-name="Groupe 37323" transform="translate(-20.418 -28.307)">
    <path id="Tracé_38678" data-name="Tracé 38678" d="M130.26,70.262l10.725-6.724c-.846-1.02-8.867-10.349-21.769-9.6a27,27,0,0,0-18.729,9.6,22.081,22.081,0,0,0,0,24.971c.8.988,8.71,10.439,21.61,9.764,11.3-.588,17.871-8.5,18.888-9.764l-9.925-6.562a13.389,13.389,0,0,1-10.4,4.323,12.854,12.854,0,0,1-7.845-3.522,8.724,8.724,0,0,1-.641-12.647,12.251,12.251,0,0,1,6.885-3.84C125.334,65.192,129.862,69.838,130.26,70.262Z" transform="translate(107.501 36.095)" fill="#1a1818"/>
    <path id="Tracé_38679" data-name="Tracé 38679" d="M181.368,60.373a23.841,23.841,0,0,0-18.088-6.444c-1.367-.031-11.543-.094-18.568,8.2A23.835,23.835,0,0,0,139.269,78.3,24.99,24.99,0,0,0,163.28,98.345c1.408.087,11.562.542,18.888-7.4a23.662,23.662,0,0,0,6.082-14.809A23.519,23.519,0,0,0,181.368,60.373Zm-8.409,23.16a12.246,12.246,0,0,1-9.443,3.7,12.493,12.493,0,0,1-12.006-10.022,11.9,11.9,0,0,1,2.719-8.083,12.207,12.207,0,0,1,9.286-4.1,11.917,11.917,0,0,1,9.043,3.221A11.78,11.78,0,0,1,176,76.129,11.832,11.832,0,0,1,172.96,83.533Z" transform="translate(167.642 36.059)" fill="#1a1818"/>
    <path id="Tracé_38680" data-name="Tracé 38680" d="M204.075,60.38a23.846,23.846,0,0,0-18.088-6.446c-1.365-.031-11.543-.092-18.568,8.206a23.812,23.812,0,0,0-5.441,16.169A24.98,24.98,0,0,0,185.987,98.35c1.408.089,11.562.545,18.888-7.4a23.667,23.667,0,0,0,6.082-14.812A23.519,23.519,0,0,0,204.075,60.38Zm-8.409,23.16a12.246,12.246,0,0,1-9.443,3.7,12.493,12.493,0,0,1-12.006-10.022,11.914,11.914,0,0,1,2.722-8.086,12.2,12.2,0,0,1,9.284-4.1,11.917,11.917,0,0,1,9.043,3.221,11.78,11.78,0,0,1,3.443,7.883A11.832,11.832,0,0,1,195.667,83.54Z" transform="translate(199.678 36.066)" fill="#1a1818"/>
    <path id="Tracé_38681" data-name="Tracé 38681" d="M247.1,60.38a23.846,23.846,0,0,0-18.088-6.446c-1.365-.031-11.543-.092-18.568,8.206A23.812,23.812,0,0,0,205,78.309,24.98,24.98,0,0,0,229.013,98.35c1.408.089,11.562.545,18.888-7.4a23.667,23.667,0,0,0,6.082-14.812A23.519,23.519,0,0,0,247.1,60.38Zm-8.409,23.16a12.246,12.246,0,0,1-9.443,3.7,12.493,12.493,0,0,1-12.006-10.022,11.914,11.914,0,0,1,2.722-8.086,12.2,12.2,0,0,1,9.284-4.1,11.917,11.917,0,0,1,9.043,3.221,11.78,11.78,0,0,1,3.443,7.883A11.832,11.832,0,0,1,238.693,83.54Z" transform="translate(260.378 36.066)" fill="#1a1818"/>
    <path id="Tracé_38682" data-name="Tracé 38682" d="M118.076,49.4v58.9h12.806V83.331c1.642-4.361,6.748-6.152,10.6-5.123,3.79,1.013,5.682,4.284,5.723,5.123V108.3h13.765V82.372c0-1.4-2.04-9.785-10.243-14.407-9.853-5.55-19.85-.347-20.489,0V45.875Z" transform="translate(137.773 24.785)" fill="#1a1818"/>
    <path id="Tracé_38683" data-name="Tracé 38683" d="M199.026,46.207,186.3,50.049V109.2h12.726Z" transform="translate(234.021 25.253)" fill="#1a1818"/>
    <path id="Tracé_38684" data-name="Tracé 38684" d="M288.646,53.871V98.385H275.44V57.244Z" transform="translate(359.776 36.066)" fill="#1a1818"/>
    <g id="Groupe_37321" data-name="Groupe 37321" transform="translate(575.329 90.337)">
      <path id="Tracé_38685" data-name="Tracé 38685" d="M286.074,54.037v2.047A24.739,24.739,0,0,0,274.63,54.1c-1.367-.031-11.543-.092-18.568,8.206a23.819,23.819,0,0,0-5.444,16.169A24.985,24.985,0,0,0,274.63,98.518a25.806,25.806,0,0,0,11.444-2.107v1.741H299.6V54.037Zm0,27.114a11.071,11.071,0,0,1-1.765,2.555,12.252,12.252,0,0,1-9.445,3.7,12.5,12.5,0,0,1-12.006-10.022A11.927,11.927,0,0,1,265.58,69.3a12.206,12.206,0,0,1,9.284-4.1,11.922,11.922,0,0,1,9.045,3.221,11.187,11.187,0,0,1,2.165,2.963,12.021,12.021,0,0,1,1.275,4.92A12.107,12.107,0,0,1,286.074,81.151Z" transform="translate(-250.598 -54.037)" fill="#1a1818"/>
    </g>
    <path id="Tracé_38686" data-name="Tracé 38686" d="M256.038,78.834V68.157H242.533a12.507,12.507,0,0,1,2.941-7.8c3.971-4.6,9.884-4.255,10.564-4.2V44.384a27.128,27.128,0,0,0-14.766,3.484,27.648,27.648,0,0,0-12.129,14.785,2.035,2.035,0,0,0-.116.68v48.485h13.925V78.834Z" transform="translate(294.3 22.633)" fill="#1a1818"/>
    <g id="Groupe_37322" data-name="Groupe 37322" transform="translate(76.625 128.323)">
      <path id="Tracé_38687" data-name="Tracé 38687" d="M65.066,74.4a14.887,14.887,0,0,1,8.346-4.426,14.607,14.607,0,0,1,6.885.583q11.626,30.947,23.252,61.889H90.671l-5.1-14.78H61.712l-5.1,14.78H43.733Zm16.7,32.548L76.235,91.472l-2.247-7.519H73.3l-2.249,7.519-5.53,15.472Z" transform="translate(-43.733 -69.794)" fill="#1a1818"/>
      <path id="Tracé_38688" data-name="Tracé 38688" d="M70.983,132V73.952l11.323-3.843V132Z" transform="translate(-5.29 -69.35)" fill="#1a1818"/>
      <path id="Tracé_38689" data-name="Tracé 38689" d="M100.469,141.43a25.286,25.286,0,0,1-8-1.167,22.741,22.741,0,0,1-6.094-3.025,20.441,20.441,0,0,1-4.322-4.106,16.118,16.118,0,0,1-2.507-4.5l10.805-4.323a10.3,10.3,0,0,0,3.978,5.231,11.632,11.632,0,0,0,14.607-1.62q3.114-3.479,3.112-9.576v-2.936h-.692a13.845,13.845,0,0,1-5.229,4.363,17.079,17.079,0,0,1-7.649,1.6,18.552,18.552,0,0,1-7.391-1.538,19.38,19.38,0,0,1-6.352-4.409,23.268,23.268,0,0,1,0-31.841,19.373,19.373,0,0,1,6.352-4.407,18.554,18.554,0,0,1,7.391-1.54,17.111,17.111,0,0,1,7.649,1.6,13.873,13.873,0,0,1,5.229,4.366h.692v-4.58h10.805V118.35a26.735,26.735,0,0,1-1.642,9.638,20.777,20.777,0,0,1-4.583,7.261,19.857,19.857,0,0,1-7.044,4.58A24.938,24.938,0,0,1,100.469,141.43Zm.432-30.253a11.606,11.606,0,0,0,4.106-.764,10.478,10.478,0,0,0,3.587-2.249,11.263,11.263,0,0,0,2.507-3.647,12.292,12.292,0,0,0,.95-4.969,12.578,12.578,0,0,0-.95-5,11.128,11.128,0,0,0-2.507-3.691,10.478,10.478,0,0,0-3.587-2.249,11.606,11.606,0,0,0-4.106-.764,11.262,11.262,0,0,0-4.065.764,10.223,10.223,0,0,0-3.541,2.29,11.659,11.659,0,0,0-2.507,3.693,13.42,13.42,0,0,0,0,9.93,11.189,11.189,0,0,0,2.507,3.647,10.543,10.543,0,0,0,3.541,2.249A11.262,11.262,0,0,0,100.9,111.178Z" transform="translate(5.332 -58.726)" fill="#1a1818"/>
      <path id="Tracé_38690" data-name="Tracé 38690" d="M101.208,120.565V82.053l11.323-3.84v42.352Z" transform="translate(37.351 -57.917)" fill="#1a1818"/>
      <path id="Tracé_38691" data-name="Tracé 38691" d="M151.552,111.178a23.757,23.757,0,0,1-7.907,8.385,22,22,0,0,1-12.145,3.2,23.329,23.329,0,0,1-8.946-1.685,21.339,21.339,0,0,1-11.842-11.842,23.564,23.564,0,0,1-1.688-9.033,23.171,23.171,0,0,1,1.644-8.686,21.9,21.9,0,0,1,11.538-12.059,21.284,21.284,0,0,1,8.86-1.815,23.075,23.075,0,0,1,9.077,1.685,18.514,18.514,0,0,1,6.656,4.667,20.083,20.083,0,0,1,4.062,7.044,27.236,27.236,0,0,1,1.384,8.819v1.037a5.785,5.785,0,0,0-.087.95,4.851,4.851,0,0,0-.087.952H120.176a11.829,11.829,0,0,0,1.427,4.45,10.687,10.687,0,0,0,2.678,3.112,10.375,10.375,0,0,0,3.5,1.815,13.6,13.6,0,0,0,3.889.562,11.035,11.035,0,0,0,6.442-1.772,12.929,12.929,0,0,0,4.019-4.453ZM141.266,94.753a7.367,7.367,0,0,0-.733-2.507,8.9,8.9,0,0,0-1.9-2.592,9.947,9.947,0,0,0-3.112-1.989,11.513,11.513,0,0,0-4.453-.779,10.371,10.371,0,0,0-6.4,2.076,10.948,10.948,0,0,0-3.889,5.791Z" transform="translate(48.377 -58.726)" fill="#1a1818"/>
      <path id="Tracé_38692" data-name="Tracé 38692" d="M129.964,79.023H140.6V84.9h.692a11.03,11.03,0,0,1,2.073-2.852,15.239,15.239,0,0,1,2.9-2.259,16.284,16.284,0,0,1,3.459-1.555,12.023,12.023,0,0,1,3.672-.593,13.47,13.47,0,0,1,3.848.48,9.769,9.769,0,0,1,2.722,1.249l-3.023,10.113a10.741,10.741,0,0,0-2.29-.822,13.412,13.412,0,0,0-3.069-.3,9.665,9.665,0,0,0-4.236.911,9.32,9.32,0,0,0-3.242,2.565,12.07,12.07,0,0,0-2.073,3.867,15.177,15.177,0,0,0-.735,4.822v20.853H129.964Z" transform="translate(77.919 -58.726)" fill="#1a1818"/>
      <path id="Tracé_38693" data-name="Tracé 38693" d="M162.229,122.759a24.213,24.213,0,0,1-7.391-1.037A20.442,20.442,0,0,1,149.218,119a17.842,17.842,0,0,1-4.019-3.891,18.7,18.7,0,0,1-2.507-4.453l10.116-4.32a10.925,10.925,0,0,0,3.932,4.882,9.851,9.851,0,0,0,5.489,1.6,9.3,9.3,0,0,0,4.925-1.123,3.2,3.2,0,0,0,1.815-2.681,3.309,3.309,0,0,0-1.512-2.809,15.666,15.666,0,0,0-5.229-1.945l-5.964-1.3a20.808,20.808,0,0,1-4.108-1.381,16.067,16.067,0,0,1-3.845-2.42,12.211,12.211,0,0,1-2.852-3.544,10.005,10.005,0,0,1-1.123-4.841,11.221,11.221,0,0,1,1.338-5.533,12.513,12.513,0,0,1,3.674-4.106,17.6,17.6,0,0,1,5.489-2.594,24.537,24.537,0,0,1,6.786-.906,23.85,23.85,0,0,1,10.805,2.377,14.652,14.652,0,0,1,7,7.563l-9.768,3.978a7.491,7.491,0,0,0-3.544-3.631A10.671,10.671,0,0,0,161.45,86.8a8.681,8.681,0,0,0-4.236,1,2.918,2.918,0,0,0-1.815,2.551,2.613,2.613,0,0,0,1.512,2.334,17.56,17.56,0,0,0,4.108,1.555l6.483,1.557q6.484,1.555,9.638,4.969a11.52,11.52,0,0,1,3.153,8.083,11.308,11.308,0,0,1-1.3,5.272,14.119,14.119,0,0,1-3.672,4.45,17.991,17.991,0,0,1-5.706,3.069A23.04,23.04,0,0,1,162.229,122.759Z" transform="translate(95.875 -58.726)" fill="#1a1818"/>
    </g>
    <path id="Tracé_38694" data-name="Tracé 38694" d="M98.638,99.1a24.2,24.2,0,0,1-7.389-1.039A20.376,20.376,0,0,1,85.63,95.34a17.74,17.74,0,0,1-4.019-3.891A18.693,18.693,0,0,1,79.1,87l10.113-4.323a10.923,10.923,0,0,0,3.934,4.884,9.866,9.866,0,0,0,5.487,1.6,9.3,9.3,0,0,0,4.928-1.123,3.192,3.192,0,0,0,1.815-2.681,3.312,3.312,0,0,0-1.512-2.809A15.714,15.714,0,0,0,98.638,80.6l-5.964-1.295a20.961,20.961,0,0,1-4.106-1.384,15.992,15.992,0,0,1-3.845-2.42,12.179,12.179,0,0,1-2.852-3.544,10,10,0,0,1-1.123-4.841,11.227,11.227,0,0,1,1.338-5.533,12.486,12.486,0,0,1,3.674-4.106,17.575,17.575,0,0,1,5.489-2.592,24.433,24.433,0,0,1,6.786-.909,23.847,23.847,0,0,1,10.8,2.377,14.633,14.633,0,0,1,7,7.563L106.073,67.9a7.5,7.5,0,0,0-3.544-3.631,10.675,10.675,0,0,0-4.667-1.123,8.674,8.674,0,0,0-4.236.993,2.921,2.921,0,0,0-1.815,2.551,2.613,2.613,0,0,0,1.512,2.334,17.558,17.558,0,0,0,4.108,1.555l6.483,1.557q6.48,1.555,9.638,4.969a11.52,11.52,0,0,1,3.153,8.083,11.308,11.308,0,0,1-1.3,5.272,14.128,14.128,0,0,1-3.674,4.45,17.953,17.953,0,0,1-5.7,3.069A22.977,22.977,0,0,1,98.638,99.1Z" transform="translate(82.792 36.218)" fill="#1a1818"/>
    <path id="Tracé_38695" data-name="Tracé 38695" d="M60.492,106.419a19.517,19.517,0,0,1-8.558,2.835,18.975,18.975,0,0,1-13.172-3.821c-1.75-1.3-3.672-2.418-5.412-3.725a30.888,30.888,0,0,1-12.616-21.14c-1.27-9.093,1.3-17.3,7.5-24.609A31.926,31.926,0,0,1,41.9,46.666a3.22,3.22,0,0,0,1.456-1.116,33.387,33.387,0,0,1,20.94-14.19,33.764,33.764,0,0,1,14.515-.029,2.787,2.787,0,0,0,1.666-.154,27.014,27.014,0,0,1,32.639,6.538,2.232,2.232,0,0,0,2.2.827,22.068,22.068,0,0,1,17.509,6.321c6.478,6.384,8.16,13.862,5.8,22.09a1.532,1.532,0,0,0,.547,1.847c11.709,10.477,8.623,29.055-6.266,35.356a2.583,2.583,0,0,0-1.107,1.119,27.517,27.517,0,0,1-18.761,13.91,26.524,26.524,0,0,1-11.608.017,2.087,2.087,0,0,0-2.109.494q-12.212,10.7-24.484,21.34c-.145.125-.3.241-.714.583l5.053-24.469A27.654,27.654,0,0,1,60.492,106.419ZM31.375,92.152c.383-2.17.779-4.3,1.123-6.43a1.7,1.7,0,0,0-.176-1.133A8.794,8.794,0,0,1,30.984,78.2a8.941,8.941,0,0,1,7.5-7.078,9.143,9.143,0,0,1,9.026,4.1c3.39,5.4,0,12.235-6.586,13.184a23.105,23.105,0,0,1-3.271.022c-1.176,3.079-.058,7.818,2.594,10.9a13.358,13.358,0,0,0,16.557,2.9c.6-.342.885-.629.586-1.343a25.38,25.38,0,0,1-.342-19.052,1.428,1.428,0,0,0-.183-1.2,8.708,8.708,0,0,1-1.63-6.873c.764-4.477,5.222-7.57,10.118-7.008A8.952,8.952,0,0,1,72.958,74a8.692,8.692,0,0,1-6.883,9.87,28.455,28.455,0,0,1-3.922.294,19.757,19.757,0,0,0,1.8,17.415c4.691,7.565,12.1,10.935,22.015,10.241l-3.052,14.862,11-10.029c-1.345-.923-3.04-1.931-4.527-3.136a26.618,26.618,0,0,1-9.708-16.044,2.192,2.192,0,0,0-.875-1.439c-4.891-2.6-6.591-8.025-3.821-12.425a9.155,9.155,0,0,1,12.625-2.76c6.058,3.884,5.2,12.473-1.548,15.34-.675.287-.916.593-.677,1.186a44.932,44.932,0,0,0,2.555,6.2c7.6,12.9,25.945,14.561,35.973,3.332.268-.3.5-.622.574-.714-2.606-.569-5.157-1.08-7.673-1.7a2.149,2.149,0,0,0-1.851.176,9.061,9.061,0,0,1-10.043-.523A8.541,8.541,0,0,1,102.943,92.3a9.123,9.123,0,0,1,14.778-.082,8.705,8.705,0,0,1,1.348,7.281c.328.116.627.246.94.328a16.267,16.267,0,0,0,11.584-1.066A15.622,15.622,0,0,0,135.727,73.1c-1.039,1.14-2.044,2.2-2.982,3.3a1.39,1.39,0,0,0-.268,1,8.851,8.851,0,0,1-.926,5.26,9.136,9.136,0,0,1-15.041,1.437,8.412,8.412,0,0,1-1.791-7.047,8.916,8.916,0,0,1,10.721-6.875,26.31,26.31,0,0,1,4.036,1.61c7.213-6.9,5.718-19.44-3.093-25.094a16.972,16.972,0,0,0-9.294-2.763c.386,1.109.706,2.112,1.1,3.091a1.122,1.122,0,0,0,.663.579,8.8,8.8,0,0,1,6.3,10.13,9.108,9.108,0,0,1-11.1,6.7,8.736,8.736,0,0,1-6.331-10.957,9.252,9.252,0,0,1,4.853-5.482C108.573,35.538,95.113,31.9,87.985,34.412A93.172,93.172,0,0,1,95.6,40.605,31.013,31.013,0,0,1,105,62.162a2.167,2.167,0,0,0,.605,1.567c3.182,2.375,4.342,5.359,3.7,8.932a8.91,8.91,0,0,1-7.143,6.866,9.09,9.09,0,0,1-9.113-3.715,8.181,8.181,0,0,1-.885-8.1A9.049,9.049,0,0,1,99.3,62.232a2.069,2.069,0,0,0,.075-.378,6.267,6.267,0,0,0-.019-.673,26.855,26.855,0,0,0-5.224-13.915A28.166,28.166,0,0,0,65.659,36.623a27.621,27.621,0,0,0-14.484,8c.082.092.106.137.13.14q.445,0,.89-.007a33,33,0,0,1,11.83,1.871,1.828,1.828,0,0,0,2-.256,9.045,9.045,0,0,1,11.316.441,8.519,8.519,0,0,1,.911,12.129,9.119,9.119,0,0,1-13.1.663,8,8,0,0,1-2.724-6.673c.07-.955-.3-1.275-1.246-1.538-9.51-2.649-18.1-1.054-25.306,4.891-8.97,7.4-11.446,16.695-8.872,27.124A23.535,23.535,0,0,0,31.375,92.152Zm81.539-36.224a3.41,3.41,0,0,0,6.818.043,3.412,3.412,0,0,0-6.818-.043Zm14.038,22.755A3.393,3.393,0,1,0,123.582,82,3.4,3.4,0,0,0,126.952,78.683ZM43.226,79.8a3.4,3.4,0,1,0-3.414,3.274A3.4,3.4,0,0,0,43.226,79.8ZM86.07,88.177a3.353,3.353,0,0,0-3.329-3.327,3.39,3.39,0,0,0-3.486,3.315,3.452,3.452,0,0,0,3.409,3.293A3.4,3.4,0,0,0,86.07,88.177ZM71.384,50.051A3.34,3.34,0,0,0,67.973,53.3a3.4,3.4,0,0,0,6.808.012A3.339,3.339,0,0,0,71.384,50.051ZM100.47,74.228a3.388,3.388,0,0,0,3.447-3.235,3.413,3.413,0,0,0-6.825-.055A3.371,3.371,0,0,0,100.47,74.228Zm13.247,22.938a3.367,3.367,0,1,0-3.31,3.327A3.277,3.277,0,0,0,113.717,97.167ZM67.483,75.4A3.408,3.408,0,1,0,64.1,78.686,3.373,3.373,0,0,0,67.483,75.4Z" transform="translate(0 0)" fill="#1a1818"/>
    <rect id="Rectangle_1351" data-name="Rectangle 1351" width="136.351" height="1.205" transform="translate(215.184 200.9)" fill="#1a1818"/>
  </g>
</svg>
