<svg xmlns="http://www.w3.org/2000/svg" width="36.891" height="36.89" viewBox="0 0 36.891 36.89"><defs><style>.a{fill:#047cad;}</style></defs><path class="a" d="M350.37,95.943a4,4,0,0,0-4.563-3.335l-10.5,1.633-1.633-10.5a4,4,0,1,0-7.9,1.228l1.633,10.5L316.91,97.1a4,4,0,0,0,.608,7.945,4.061,4.061,0,0,0,.619-.047l10.5-1.633,1.633,10.5a4,4,0,0,0,3.943,3.382,4.061,4.061,0,0,0,.619-.047,4,4,0,0,0,3.335-4.563l-1.633-10.5,10.5-1.633A4,4,0,0,0,350.37,95.943Z" transform="translate(-313.527 -80.359)"/></svg>